<?xml version="1.0" encoding="iso-8859-1"?>
<!-- Generator: Adobe Illustrator 19.0.0, SVG Export Plug-In . SVG Version: 6.00 Build 0)  -->
<svg version="1.1" id="Layer_1" xmlns="http://www.w3.org/2000/svg" xmlns:xlink="http://www.w3.org/1999/xlink" x="0px" y="0px"
	 viewBox="0 0 512 512" style="enable-background:new 0 0 512 512;" xml:space="preserve">
<g>
	<g>
		<path d="M442.182,0H69.818C31.32,0,0,31.32,0,69.818v372.364C0,480.68,31.32,512,69.818,512h372.364
			C480.68,512,512,480.68,512,442.182V69.818C512,31.32,480.68,0,442.182,0z M465.455,442.182c0,12.833-10.44,23.273-23.273,23.273
			H69.818c-12.833,0-23.273-10.44-23.273-23.273V69.818c0-12.833,10.44-23.273,23.273-23.273h372.364
			c12.833,0,23.273,10.44,23.273,23.273V442.182z"/>
	</g>
</g>
<g>
	<g>
		<polygon points="186.182,139.636 186.182,100.848 139.636,100.848 139.636,139.636 100.848,139.636 100.848,186.182 
			139.636,186.182 139.636,224.97 186.182,224.97 186.182,186.182 224.97,186.182 224.97,139.636 		"/>
	</g>
</g>
<g>
	<g>
		<circle cx="356.849" cy="155.152" r="54.303"/>
	</g>
</g>
<g>
	<g>
		<rect x="302.545" y="302.545" width="108.606" height="108.606"/>
	</g>
</g>
<g>
	<g>
		<polygon points="163.426,287.03 91.023,411.151 235.83,411.151 		"/>
	</g>
</g>
<g>
</g>
<g>
</g>
<g>
</g>
<g>
</g>
<g>
</g>
<g>
</g>
<g>
</g>
<g>
</g>
<g>
</g>
<g>
</g>
<g>
</g>
<g>
</g>
<g>
</g>
<g>
</g>
<g>
</g>
</svg>
